<mxfile host="Electron" agent="Mozilla/5.0 (Windows NT 10.0; Win64; x64) AppleWebKit/537.36 (KHTML, like Gecko) draw.io/27.0.9 Chrome/134.0.6998.205 Electron/35.4.0 Safari/537.36" version="27.0.9">
  <diagram name="IT_Landscape" id="0">
    <mxGraphModel dx="2252" dy="828" grid="1" gridSize="10" guides="1" tooltips="1" connect="1" arrows="1" fold="1" page="1" pageScale="1" pageWidth="827" pageHeight="1169" math="0" shadow="0">
      <root>
        <mxCell id="0" />
        <mxCell id="1" parent="0" />
        <mxCell id="2" value="Продажи&amp;nbsp;&amp;nbsp;&lt;div&gt;отделения&lt;/div&gt;" style="shape=rectangle;fillColor=#fff2cc;labelBorderColor=none;whiteSpace=wrap;html=1;fontSize=15;strokeColor=#000000;fontStyle=1;textShadow=0;labelBackgroundColor=none;rounded=1;glass=0;shadow=1;" parent="1" vertex="1">
          <mxGeometry x="190" y="70" width="160" height="70" as="geometry" />
        </mxCell>
        <mxCell id="3" value="Продажи&amp;nbsp;&lt;div&gt;кол-центр&lt;/div&gt;" style="shape=rectangle;fillColor=#fff2cc;labelBorderColor=none;whiteSpace=wrap;html=1;fontSize=15;strokeColor=#000000;fontStyle=1;textShadow=0;labelBackgroundColor=none;rounded=1;glass=0;shadow=1;" parent="1" vertex="1">
          <mxGeometry x="350" y="70" width="150" height="70" as="geometry" />
        </mxCell>
        <mxCell id="4" value="&lt;div&gt;Оповещения клиентов&lt;/div&gt;" style="shape=rectangle;fillColor=#fff2cc;labelBorderColor=none;whiteSpace=wrap;html=1;fontSize=15;strokeColor=#000000;fontStyle=1;textShadow=0;labelBackgroundColor=none;rounded=1;glass=0;shadow=1;" parent="1" vertex="1">
          <mxGeometry x="500" y="70" width="160" height="70" as="geometry" />
        </mxCell>
        <mxCell id="5" value="Обслуживание депозитных процессов" style="shape=rectangle;fillColor=#fff2cc;labelBorderColor=none;whiteSpace=wrap;html=1;fontSize=15;strokeColor=#000000;fontStyle=1;textShadow=0;labelBackgroundColor=none;rounded=1;glass=0;shadow=1;" parent="1" vertex="1">
          <mxGeometry x="660" y="70" width="170" height="70" as="geometry" />
        </mxCell>
        <mxCell id="6" value="Обслуживание кредитных процессов" style="shape=rectangle;fillColor=#fff2cc;labelBorderColor=none;whiteSpace=wrap;html=1;fontSize=15;strokeColor=#000000;fontStyle=1;textShadow=0;labelBackgroundColor=none;rounded=1;glass=0;shadow=1;" parent="1" vertex="1">
          <mxGeometry x="830" y="70" width="150" height="70" as="geometry" />
        </mxCell>
        <mxCell id="7" value="Управление договорами" style="shape=rectangle;fillColor=#fff2cc;labelBorderColor=none;whiteSpace=wrap;html=1;fontSize=15;strokeColor=#000000;fontStyle=1;textShadow=0;labelBackgroundColor=none;rounded=1;glass=0;shadow=1;" parent="1" vertex="1">
          <mxGeometry x="980" y="70" width="130" height="70" as="geometry" />
        </mxCell>
        <mxCell id="9" value="АБС" style="shape=rectangle;fillColor=#dae8fc;fontSize=15;strokeColor=#000000;rounded=1;glass=0;shadow=1;" parent="1" vertex="1">
          <mxGeometry x="190" y="140" width="160" height="70" as="geometry" />
        </mxCell>
        <mxCell id="11" value="Система кол-центра" style="shape=rectangle;fillColor=#dae8fc;fontSize=15;strokeColor=#000000;rounded=1;glass=0;shadow=1;" parent="1" vertex="1">
          <mxGeometry x="350" y="210" width="150" height="70" as="geometry" />
        </mxCell>
        <mxCell id="13" value="SMS-шлюз" style="shape=rectangle;fillColor=#dae8fc;fontSize=15;strokeColor=#000000;rounded=1;glass=0;shadow=1;" parent="1" vertex="1">
          <mxGeometry x="500" y="280" width="160" height="70" as="geometry" />
        </mxCell>
        <mxCell id="15" value="АБС, Excel" style="shape=rectangle;fillColor=#dae8fc;fontSize=15;strokeColor=#000000;rounded=1;glass=0;shadow=1;" parent="1" vertex="1">
          <mxGeometry x="660" y="350" width="170" height="70" as="geometry" />
        </mxCell>
        <mxCell id="17" value="АБС, Excel" style="shape=rectangle;fillColor=#dae8fc;fontSize=15;strokeColor=#000000;rounded=1;glass=0;shadow=1;" parent="1" vertex="1">
          <mxGeometry x="830" y="420" width="150" height="70" as="geometry" />
        </mxCell>
        <mxCell id="19" value="Интернет-банк, Сайт" style="shape=rectangle;fillColor=#dae8fc;fontSize=15;strokeColor=#6c8ebf;rounded=1;glass=0;shadow=1;" parent="1" vertex="1">
          <mxGeometry x="500" y="490" width="160" height="70" as="geometry" />
        </mxCell>
        <mxCell id="kysyQ16HeWuNX6dTZhsk-19" value="Отделения" style="rounded=1;whiteSpace=wrap;html=1;fontSize=15;fillColor=#d5e8d4;strokeColor=#000000;fontStyle=1;textShadow=0;labelBorderColor=none;labelBackgroundColor=none;glass=0;shadow=1;" vertex="1" parent="1">
          <mxGeometry x="60" y="140" width="130" height="70" as="geometry" />
        </mxCell>
        <mxCell id="kysyQ16HeWuNX6dTZhsk-20" value="IT-отдел" style="rounded=1;whiteSpace=wrap;html=1;fontSize=15;fillColor=#d5e8d4;strokeColor=#000000;fontStyle=1;textShadow=0;labelBorderColor=none;labelBackgroundColor=none;glass=0;shadow=1;" vertex="1" parent="1">
          <mxGeometry x="60" y="280" width="130" height="70" as="geometry" />
        </mxCell>
        <mxCell id="kysyQ16HeWuNX6dTZhsk-21" value="Колл-центр" style="rounded=1;whiteSpace=wrap;html=1;fontSize=15;fillColor=#d5e8d4;strokeColor=#000000;fontStyle=1;textShadow=0;labelBorderColor=none;labelBackgroundColor=none;glass=0;shadow=1;" vertex="1" parent="1">
          <mxGeometry x="60" y="210" width="130" height="70" as="geometry" />
        </mxCell>
        <mxCell id="kysyQ16HeWuNX6dTZhsk-23" value="Бэк офис (кредиты)" style="rounded=1;whiteSpace=wrap;html=1;fontSize=15;fillColor=#d5e8d4;strokeColor=#000000;fontStyle=1;textShadow=0;labelBorderColor=none;labelBackgroundColor=none;glass=0;shadow=1;" vertex="1" parent="1">
          <mxGeometry x="60" y="420" width="130" height="70" as="geometry" />
        </mxCell>
        <mxCell id="kysyQ16HeWuNX6dTZhsk-25" value="Бэк офис (депозиты)" style="rounded=1;whiteSpace=wrap;html=1;fontSize=15;fillColor=#d5e8d4;strokeColor=#000000;fontStyle=1;textShadow=0;labelBorderColor=none;labelBackgroundColor=none;glass=0;shadow=1;" vertex="1" parent="1">
          <mxGeometry x="60" y="350" width="130" height="70" as="geometry" />
        </mxCell>
        <mxCell id="kysyQ16HeWuNX6dTZhsk-26" value="Команда цифровой трансформации" style="rounded=1;whiteSpace=wrap;html=1;fontSize=15;fillColor=#d5e8d4;strokeColor=#000000;fontStyle=1;textShadow=0;labelBorderColor=none;labelBackgroundColor=none;glass=0;shadow=1;" vertex="1" parent="1">
          <mxGeometry x="60" y="490" width="130" height="70" as="geometry" />
        </mxCell>
        <mxCell id="kysyQ16HeWuNX6dTZhsk-27" value="" style="endArrow=none;html=1;rounded=0;entryX=0.003;entryY=0.881;entryDx=0;entryDy=0;entryPerimeter=0;" edge="1" parent="1" target="3">
          <mxGeometry width="50" height="50" relative="1" as="geometry">
            <mxPoint x="350" y="560" as="sourcePoint" />
            <mxPoint x="510" y="370" as="targetPoint" />
          </mxGeometry>
        </mxCell>
        <mxCell id="kysyQ16HeWuNX6dTZhsk-28" value="" style="endArrow=none;html=1;rounded=0;entryX=-0.001;entryY=0.901;entryDx=0;entryDy=0;entryPerimeter=0;" edge="1" parent="1" target="4">
          <mxGeometry width="50" height="50" relative="1" as="geometry">
            <mxPoint x="499.16999999999996" y="560" as="sourcePoint" />
            <mxPoint x="499.16999999999996" y="140" as="targetPoint" />
          </mxGeometry>
        </mxCell>
        <mxCell id="kysyQ16HeWuNX6dTZhsk-29" value="" style="endArrow=none;html=1;rounded=0;entryX=0.002;entryY=0.874;entryDx=0;entryDy=0;entryPerimeter=0;" edge="1" parent="1" target="5">
          <mxGeometry width="50" height="50" relative="1" as="geometry">
            <mxPoint x="660" y="560" as="sourcePoint" />
            <mxPoint x="660" y="140" as="targetPoint" />
          </mxGeometry>
        </mxCell>
        <mxCell id="kysyQ16HeWuNX6dTZhsk-30" value="" style="endArrow=none;html=1;rounded=0;entryX=0;entryY=0.891;entryDx=0;entryDy=0;entryPerimeter=0;" edge="1" parent="1" target="6">
          <mxGeometry width="50" height="50" relative="1" as="geometry">
            <mxPoint x="830" y="560" as="sourcePoint" />
            <mxPoint x="830" y="140" as="targetPoint" />
          </mxGeometry>
        </mxCell>
        <mxCell id="kysyQ16HeWuNX6dTZhsk-31" value="" style="endArrow=none;html=1;rounded=0;entryX=-0.002;entryY=0.864;entryDx=0;entryDy=0;entryPerimeter=0;" edge="1" parent="1" target="7">
          <mxGeometry width="50" height="50" relative="1" as="geometry">
            <mxPoint x="979.17" y="560" as="sourcePoint" />
            <mxPoint x="979.17" y="140" as="targetPoint" />
          </mxGeometry>
        </mxCell>
        <mxCell id="kysyQ16HeWuNX6dTZhsk-32" value="" style="endArrow=none;html=1;rounded=0;entryX=1;entryY=0.874;entryDx=0;entryDy=0;entryPerimeter=0;" edge="1" parent="1" target="7">
          <mxGeometry width="50" height="50" relative="1" as="geometry">
            <mxPoint x="1110" y="560" as="sourcePoint" />
            <mxPoint x="1110" y="140" as="targetPoint" />
          </mxGeometry>
        </mxCell>
        <mxCell id="kysyQ16HeWuNX6dTZhsk-33" value="" style="endArrow=none;html=1;rounded=0;entryX=0.964;entryY=0.994;entryDx=0;entryDy=0;entryPerimeter=0;" edge="1" parent="1" target="kysyQ16HeWuNX6dTZhsk-21">
          <mxGeometry width="50" height="50" relative="1" as="geometry">
            <mxPoint x="1110" y="280" as="sourcePoint" />
            <mxPoint x="340" y="360" as="targetPoint" />
          </mxGeometry>
        </mxCell>
        <mxCell id="kysyQ16HeWuNX6dTZhsk-34" value="" style="endArrow=none;html=1;rounded=0;entryX=0.935;entryY=0.003;entryDx=0;entryDy=0;entryPerimeter=0;" edge="1" parent="1" target="kysyQ16HeWuNX6dTZhsk-21">
          <mxGeometry width="50" height="50" relative="1" as="geometry">
            <mxPoint x="1110" y="210" as="sourcePoint" />
            <mxPoint x="470" y="400" as="targetPoint" />
          </mxGeometry>
        </mxCell>
        <mxCell id="kysyQ16HeWuNX6dTZhsk-35" value="" style="endArrow=none;html=1;rounded=0;entryX=0.964;entryY=0.994;entryDx=0;entryDy=0;entryPerimeter=0;" edge="1" parent="1">
          <mxGeometry width="50" height="50" relative="1" as="geometry">
            <mxPoint x="1110" y="350" as="sourcePoint" />
            <mxPoint x="180" y="350" as="targetPoint" />
          </mxGeometry>
        </mxCell>
        <mxCell id="kysyQ16HeWuNX6dTZhsk-36" value="" style="endArrow=none;html=1;rounded=0;entryX=0.964;entryY=0.994;entryDx=0;entryDy=0;entryPerimeter=0;" edge="1" parent="1">
          <mxGeometry width="50" height="50" relative="1" as="geometry">
            <mxPoint x="1110" y="420" as="sourcePoint" />
            <mxPoint x="185" y="420" as="targetPoint" />
          </mxGeometry>
        </mxCell>
        <mxCell id="kysyQ16HeWuNX6dTZhsk-37" value="" style="endArrow=none;html=1;rounded=0;entryX=0.964;entryY=0.994;entryDx=0;entryDy=0;entryPerimeter=0;" edge="1" parent="1">
          <mxGeometry width="50" height="50" relative="1" as="geometry">
            <mxPoint x="1110" y="489.31" as="sourcePoint" />
            <mxPoint x="185" y="489.31" as="targetPoint" />
          </mxGeometry>
        </mxCell>
        <mxCell id="kysyQ16HeWuNX6dTZhsk-38" value="" style="endArrow=none;html=1;rounded=0;entryX=0.964;entryY=0.994;entryDx=0;entryDy=0;entryPerimeter=0;" edge="1" parent="1">
          <mxGeometry width="50" height="50" relative="1" as="geometry">
            <mxPoint x="1110" y="560" as="sourcePoint" />
            <mxPoint x="185" y="560" as="targetPoint" />
          </mxGeometry>
        </mxCell>
        <mxCell id="kysyQ16HeWuNX6dTZhsk-39" value="&lt;font style=&quot;font-size: 25px;&quot;&gt;AS-IS IT landscape БАНК &quot;СТАНДАРТ&quot;&lt;/font&gt;" style="text;html=1;align=center;verticalAlign=middle;whiteSpace=wrap;rounded=0;" vertex="1" parent="1">
          <mxGeometry x="360" y="10" width="510" height="30" as="geometry" />
        </mxCell>
        <UserObject label="АБС — Автоматизированная банковская система (Delphi + Oracle)&#xa;СМС-шлюз — шлюз телеком-оператора, отправляет SMS клиентам&#xa;Система кол-центра — микросервисная CRM-система подрядчика (React, Java)&#xa;Интернет-банк — клиент-серверная система (ASP.NET + MS SQL)&#xa;Сайт — PHP + React.js, только маркетинговый&#xa;Excel — расчёт ставок вручную" link="📘 Легенда:&#xa;АБС — Автоматизированная банковская система (Delphi + Oracle)&#xa;СМС-шлюз — шлюз телеком-оператора, отправляет SMS клиентам&#xa;Система кол-центра — микросервисная CRM-система подрядчика (React, Java)&#xa;Интернет-банк — клиент-серверная система (ASP.NET + MS SQL)&#xa;Сайт — PHP + React.js, только маркетинговый&#xa;Excel — расчёт ставок вручную" id="kysyQ16HeWuNX6dTZhsk-41">
          <mxCell style="text;whiteSpace=wrap;fontSize=16;" vertex="1" parent="1">
            <mxGeometry x="-630" y="50" width="610" height="120" as="geometry" />
          </mxCell>
        </UserObject>
        <mxCell id="kysyQ16HeWuNX6dTZhsk-42" value="&lt;font style=&quot;font-size: 25px;&quot;&gt;Системы&lt;/font&gt;" style="text;html=1;align=center;verticalAlign=middle;whiteSpace=wrap;rounded=0;" vertex="1" parent="1">
          <mxGeometry x="-630" y="20" width="120" height="30" as="geometry" />
        </mxCell>
      </root>
    </mxGraphModel>
  </diagram>
</mxfile>
